<mxfile host="app.diagrams.net" agent="Mozilla/5.0 (Windows NT 10.0; Win64; x64) AppleWebKit/537.36 (KHTML, like Gecko) Chrome/135.0.0.0 Safari/537.36" version="26.2.14">
  <diagram name="Page-1" id="2YBvvXClWsGukQMizWep">
    <mxGraphModel dx="2084" dy="1124" grid="1" gridSize="10" guides="1" tooltips="1" connect="1" arrows="1" fold="1" page="1" pageScale="1" pageWidth="850" pageHeight="1100" math="0" shadow="0">
      <root>
        <mxCell id="0" />
        <mxCell id="1" parent="0" />
        <mxCell id="I21a7XMTvAU6tdeDpCEF-1" value="Systeme" style="shape=umlLifeline;perimeter=lifelinePerimeter;whiteSpace=wrap;html=1;container=0;dropTarget=0;collapsible=0;recursiveResize=0;outlineConnect=0;portConstraint=eastwest;newEdgeStyle={&quot;edgeStyle&quot;:&quot;elbowEdgeStyle&quot;,&quot;elbow&quot;:&quot;vertical&quot;,&quot;curved&quot;:0,&quot;rounded&quot;:0};" vertex="1" parent="1">
          <mxGeometry x="630" y="458" width="100" height="902" as="geometry" />
        </mxCell>
        <mxCell id="I21a7XMTvAU6tdeDpCEF-2" value="" style="html=1;points=[];perimeter=orthogonalPerimeter;outlineConnect=0;targetShapes=umlLifeline;portConstraint=eastwest;newEdgeStyle={&quot;edgeStyle&quot;:&quot;elbowEdgeStyle&quot;,&quot;elbow&quot;:&quot;vertical&quot;,&quot;curved&quot;:0,&quot;rounded&quot;:0};" vertex="1" parent="I21a7XMTvAU6tdeDpCEF-1">
          <mxGeometry x="45" y="259" width="10" height="40" as="geometry" />
        </mxCell>
        <mxCell id="I21a7XMTvAU6tdeDpCEF-3" value="3:Saisir les données" style="html=1;verticalAlign=bottom;endArrow=block;edgeStyle=elbowEdgeStyle;elbow=vertical;curved=0;rounded=0;" edge="1" parent="1" target="I21a7XMTvAU6tdeDpCEF-2">
          <mxGeometry relative="1" as="geometry">
            <mxPoint x="470" y="717" as="sourcePoint" />
            <Array as="points">
              <mxPoint x="585" y="717" />
            </Array>
            <mxPoint x="670" y="717" as="targetPoint" />
          </mxGeometry>
        </mxCell>
        <mxCell id="I21a7XMTvAU6tdeDpCEF-4" value="Administrateur" style="shape=umlActor;verticalLabelPosition=bottom;verticalAlign=top;html=1;outlineConnect=0;" vertex="1" parent="1">
          <mxGeometry x="455" y="438" width="30" height="60" as="geometry" />
        </mxCell>
        <mxCell id="I21a7XMTvAU6tdeDpCEF-5" value="" style="endArrow=none;dashed=1;html=1;rounded=0;exitX=0.121;exitY=1.006;exitDx=0;exitDy=0;exitPerimeter=0;" edge="1" parent="1" source="I21a7XMTvAU6tdeDpCEF-21">
          <mxGeometry width="50" height="50" relative="1" as="geometry">
            <mxPoint x="470" y="1311.3714425223213" as="sourcePoint" />
            <mxPoint x="470" y="518" as="targetPoint" />
          </mxGeometry>
        </mxCell>
        <mxCell id="I21a7XMTvAU6tdeDpCEF-14" value="ref" style="shape=umlFrame;whiteSpace=wrap;html=1;pointerEvents=0;movable=0;resizable=0;rotatable=0;deletable=0;editable=0;locked=1;connectable=0;" vertex="1" parent="1">
          <mxGeometry x="405" y="545" width="685" height="40" as="geometry" />
        </mxCell>
        <mxCell id="I21a7XMTvAU6tdeDpCEF-15" value="S&#39;authentifier" style="text;html=1;align=center;verticalAlign=middle;resizable=0;points=[];autosize=1;strokeColor=none;fillColor=none;movable=0;rotatable=0;deletable=0;editable=0;locked=1;connectable=0;" vertex="1" parent="1">
          <mxGeometry x="522" y="550" width="90" height="30" as="geometry" />
        </mxCell>
        <mxCell id="I21a7XMTvAU6tdeDpCEF-16" value="&lt;font style=&quot;font-size: 10px;&quot;&gt;Ajouter Service&lt;/font&gt;" style="shape=umlFrame;whiteSpace=wrap;html=1;pointerEvents=0;" vertex="1" parent="1">
          <mxGeometry x="320" y="390" width="880" height="1000" as="geometry" />
        </mxCell>
        <mxCell id="I21a7XMTvAU6tdeDpCEF-17" value="Controlleur" style="shape=umlLifeline;perimeter=lifelinePerimeter;whiteSpace=wrap;html=1;container=0;dropTarget=0;collapsible=0;recursiveResize=0;outlineConnect=0;portConstraint=eastwest;newEdgeStyle={&quot;edgeStyle&quot;:&quot;elbowEdgeStyle&quot;,&quot;elbow&quot;:&quot;vertical&quot;,&quot;curved&quot;:0,&quot;rounded&quot;:0};" vertex="1" parent="1">
          <mxGeometry x="790" y="460" width="110" height="900" as="geometry" />
        </mxCell>
        <mxCell id="I21a7XMTvAU6tdeDpCEF-45" value="" style="html=1;points=[];perimeter=orthogonalPerimeter;outlineConnect=0;targetShapes=umlLifeline;portConstraint=eastwest;newEdgeStyle={&quot;edgeStyle&quot;:&quot;elbowEdgeStyle&quot;,&quot;elbow&quot;:&quot;vertical&quot;,&quot;curved&quot;:0,&quot;rounded&quot;:0};" vertex="1" parent="I21a7XMTvAU6tdeDpCEF-17">
          <mxGeometry x="50" y="297" width="10" height="40" as="geometry" />
        </mxCell>
        <mxCell id="I21a7XMTvAU6tdeDpCEF-46" value="4:Envoyer les données" style="html=1;verticalAlign=bottom;endArrow=block;edgeStyle=elbowEdgeStyle;elbow=vertical;curved=0;rounded=0;" edge="1" parent="I21a7XMTvAU6tdeDpCEF-17" target="I21a7XMTvAU6tdeDpCEF-45">
          <mxGeometry relative="1" as="geometry">
            <mxPoint x="-105" y="297" as="sourcePoint" />
            <Array as="points">
              <mxPoint x="10" y="297" />
            </Array>
            <mxPoint x="95" y="297" as="targetPoint" />
          </mxGeometry>
        </mxCell>
        <mxCell id="I21a7XMTvAU6tdeDpCEF-18" value="Base de données" style="shape=umlLifeline;perimeter=lifelinePerimeter;whiteSpace=wrap;html=1;container=0;dropTarget=0;collapsible=0;recursiveResize=0;outlineConnect=0;portConstraint=eastwest;newEdgeStyle={&quot;edgeStyle&quot;:&quot;elbowEdgeStyle&quot;,&quot;elbow&quot;:&quot;vertical&quot;,&quot;curved&quot;:0,&quot;rounded&quot;:0};" vertex="1" parent="1">
          <mxGeometry x="950" y="460" width="100" height="910" as="geometry" />
        </mxCell>
        <mxCell id="I21a7XMTvAU6tdeDpCEF-21" value="alt" style="shape=umlFrame;whiteSpace=wrap;html=1;pointerEvents=0;" vertex="1" parent="1">
          <mxGeometry x="370" y="880" width="820" height="480" as="geometry" />
        </mxCell>
        <mxCell id="I21a7XMTvAU6tdeDpCEF-22" value="[Données invalides]" style="text;html=1;align=center;verticalAlign=middle;resizable=0;points=[];autosize=1;strokeColor=none;fillColor=none;" vertex="1" parent="1">
          <mxGeometry x="425" y="900" width="130" height="30" as="geometry" />
        </mxCell>
        <mxCell id="I21a7XMTvAU6tdeDpCEF-23" value="" style="endArrow=classic;html=1;rounded=0;dashed=1;" edge="1" parent="1">
          <mxGeometry width="50" height="50" relative="1" as="geometry">
            <mxPoint x="679.5000000000002" y="960" as="sourcePoint" />
            <mxPoint x="470" y="960" as="targetPoint" />
          </mxGeometry>
        </mxCell>
        <mxCell id="I21a7XMTvAU6tdeDpCEF-24" value="7:Afficher message d&#39;erreur" style="text;html=1;align=center;verticalAlign=middle;resizable=0;points=[];autosize=1;strokeColor=none;fillColor=none;" vertex="1" parent="1">
          <mxGeometry x="487" y="954" width="170" height="30" as="geometry" />
        </mxCell>
        <mxCell id="I21a7XMTvAU6tdeDpCEF-26" value="" style="endArrow=none;dashed=1;html=1;rounded=0;exitX=0.001;exitY=0.416;exitDx=0;exitDy=0;exitPerimeter=0;entryX=1.005;entryY=0.418;entryDx=0;entryDy=0;entryPerimeter=0;dashPattern=8 8;" edge="1" parent="1" target="I21a7XMTvAU6tdeDpCEF-21" source="I21a7XMTvAU6tdeDpCEF-21">
          <mxGeometry width="50" height="50" relative="1" as="geometry">
            <mxPoint x="382.9999999999999" y="1090.8000000000002" as="sourcePoint" />
            <mxPoint x="722.92" y="1090" as="targetPoint" />
          </mxGeometry>
        </mxCell>
        <mxCell id="I21a7XMTvAU6tdeDpCEF-27" value="" style="endArrow=classic;html=1;rounded=0;dashed=1;" edge="1" parent="1">
          <mxGeometry width="50" height="50" relative="1" as="geometry">
            <mxPoint x="678.5000000000002" y="1308" as="sourcePoint" />
            <mxPoint x="469" y="1308" as="targetPoint" />
          </mxGeometry>
        </mxCell>
        <mxCell id="I21a7XMTvAU6tdeDpCEF-28" value="13: Service ajoutee avec succes" style="text;html=1;align=center;verticalAlign=middle;resizable=0;points=[];autosize=1;strokeColor=none;fillColor=none;" vertex="1" parent="1">
          <mxGeometry x="471" y="1302" width="200" height="30" as="geometry" />
        </mxCell>
        <mxCell id="I21a7XMTvAU6tdeDpCEF-35" value="12: message de confirmation" style="text;html=1;align=center;verticalAlign=middle;resizable=0;points=[];autosize=1;strokeColor=none;fillColor=none;" vertex="1" parent="1">
          <mxGeometry x="673" y="1284" width="180" height="30" as="geometry" />
        </mxCell>
        <mxCell id="I21a7XMTvAU6tdeDpCEF-36" value="" style="endArrow=classic;html=1;rounded=0;exitX=0;exitY=1;exitDx=0;exitDy=0;dashed=1;" edge="1" parent="1">
          <mxGeometry width="50" height="50" relative="1" as="geometry">
            <mxPoint x="838" y="1290" as="sourcePoint" />
            <mxPoint x="681.590909090909" y="1290" as="targetPoint" />
          </mxGeometry>
        </mxCell>
        <mxCell id="I21a7XMTvAU6tdeDpCEF-41" value="" style="html=1;points=[];perimeter=orthogonalPerimeter;outlineConnect=0;targetShapes=umlLifeline;portConstraint=eastwest;newEdgeStyle={&quot;edgeStyle&quot;:&quot;elbowEdgeStyle&quot;,&quot;elbow&quot;:&quot;vertical&quot;,&quot;curved&quot;:0,&quot;rounded&quot;:0};" vertex="1" parent="1">
          <mxGeometry x="675" y="632" width="10" height="40" as="geometry" />
        </mxCell>
        <mxCell id="I21a7XMTvAU6tdeDpCEF-42" value="1:Lancer la page ajouter service" style="html=1;verticalAlign=bottom;endArrow=block;edgeStyle=elbowEdgeStyle;elbow=vertical;curved=0;rounded=0;" edge="1" parent="1" target="I21a7XMTvAU6tdeDpCEF-41">
          <mxGeometry relative="1" as="geometry">
            <mxPoint x="470" y="632" as="sourcePoint" />
            <Array as="points">
              <mxPoint x="585" y="632" />
            </Array>
            <mxPoint x="670" y="632" as="targetPoint" />
          </mxGeometry>
        </mxCell>
        <mxCell id="I21a7XMTvAU6tdeDpCEF-43" value="" style="endArrow=classic;html=1;rounded=0;dashed=1;" edge="1" parent="1">
          <mxGeometry width="50" height="50" relative="1" as="geometry">
            <mxPoint x="676.75" y="672" as="sourcePoint" />
            <mxPoint x="467.2499999999998" y="672" as="targetPoint" />
          </mxGeometry>
        </mxCell>
        <mxCell id="I21a7XMTvAU6tdeDpCEF-44" value="2: Afficher formulaire" style="text;html=1;align=center;verticalAlign=middle;resizable=0;points=[];autosize=1;strokeColor=none;fillColor=none;" vertex="1" parent="1">
          <mxGeometry x="510" y="648" width="130" height="30" as="geometry" />
        </mxCell>
        <mxCell id="I21a7XMTvAU6tdeDpCEF-47" value="" style="html=1;points=[];perimeter=orthogonalPerimeter;outlineConnect=0;targetShapes=umlLifeline;portConstraint=eastwest;newEdgeStyle={&quot;edgeStyle&quot;:&quot;elbowEdgeStyle&quot;,&quot;elbow&quot;:&quot;vertical&quot;,&quot;curved&quot;:0,&quot;rounded&quot;:0};" vertex="1" parent="1">
          <mxGeometry x="840" y="830" width="10" height="70" as="geometry" />
        </mxCell>
        <mxCell id="I21a7XMTvAU6tdeDpCEF-52" style="edgeStyle=elbowEdgeStyle;rounded=0;orthogonalLoop=1;jettySize=auto;html=1;elbow=horizontal;curved=0;" edge="1" parent="1" source="I21a7XMTvAU6tdeDpCEF-45" target="I21a7XMTvAU6tdeDpCEF-47">
          <mxGeometry relative="1" as="geometry">
            <Array as="points">
              <mxPoint x="890" y="814" />
            </Array>
          </mxGeometry>
        </mxCell>
        <mxCell id="I21a7XMTvAU6tdeDpCEF-53" value="5:Vérifier" style="text;html=1;align=center;verticalAlign=middle;resizable=0;points=[];autosize=1;strokeColor=none;fillColor=none;" vertex="1" parent="1">
          <mxGeometry x="887" y="800" width="70" height="30" as="geometry" />
        </mxCell>
        <mxCell id="I21a7XMTvAU6tdeDpCEF-54" value="" style="endArrow=classic;html=1;rounded=0;dashed=1;" edge="1" parent="1" target="I21a7XMTvAU6tdeDpCEF-1">
          <mxGeometry width="50" height="50" relative="1" as="geometry">
            <mxPoint x="846.0000000000002" y="936" as="sourcePoint" />
            <mxPoint x="636.5" y="936" as="targetPoint" />
          </mxGeometry>
        </mxCell>
        <mxCell id="I21a7XMTvAU6tdeDpCEF-55" value="6: Message d&#39;erreur" style="text;html=1;align=center;verticalAlign=middle;resizable=0;points=[];autosize=1;strokeColor=none;fillColor=none;" vertex="1" parent="1">
          <mxGeometry x="700" y="930" width="130" height="30" as="geometry" />
        </mxCell>
        <mxCell id="I21a7XMTvAU6tdeDpCEF-56" value="[Données valides]" style="text;html=1;align=center;verticalAlign=middle;resizable=0;points=[];autosize=1;strokeColor=none;fillColor=none;" vertex="1" parent="1">
          <mxGeometry x="430" y="1080" width="120" height="30" as="geometry" />
        </mxCell>
        <mxCell id="I21a7XMTvAU6tdeDpCEF-57" value="" style="html=1;points=[];perimeter=orthogonalPerimeter;outlineConnect=0;targetShapes=umlLifeline;portConstraint=eastwest;newEdgeStyle={&quot;edgeStyle&quot;:&quot;elbowEdgeStyle&quot;,&quot;elbow&quot;:&quot;vertical&quot;,&quot;curved&quot;:0,&quot;rounded&quot;:0};" vertex="1" parent="1">
          <mxGeometry x="995" y="1130" width="10" height="40" as="geometry" />
        </mxCell>
        <mxCell id="I21a7XMTvAU6tdeDpCEF-58" value="8: Envoyer les données" style="html=1;verticalAlign=bottom;endArrow=block;edgeStyle=elbowEdgeStyle;elbow=vertical;curved=0;rounded=0;" edge="1" parent="1" target="I21a7XMTvAU6tdeDpCEF-57">
          <mxGeometry relative="1" as="geometry">
            <mxPoint x="840" y="1130" as="sourcePoint" />
            <Array as="points">
              <mxPoint x="955" y="1130" />
            </Array>
            <mxPoint x="1040" y="1130" as="targetPoint" />
          </mxGeometry>
        </mxCell>
        <mxCell id="I21a7XMTvAU6tdeDpCEF-59" value="" style="html=1;points=[];perimeter=orthogonalPerimeter;outlineConnect=0;targetShapes=umlLifeline;portConstraint=eastwest;newEdgeStyle={&quot;edgeStyle&quot;:&quot;elbowEdgeStyle&quot;,&quot;elbow&quot;:&quot;vertical&quot;,&quot;curved&quot;:0,&quot;rounded&quot;:0};" vertex="1" parent="1">
          <mxGeometry x="995" y="1203" width="10" height="70" as="geometry" />
        </mxCell>
        <mxCell id="I21a7XMTvAU6tdeDpCEF-60" style="edgeStyle=elbowEdgeStyle;rounded=0;orthogonalLoop=1;jettySize=auto;html=1;elbow=horizontal;curved=0;" edge="1" parent="1" source="I21a7XMTvAU6tdeDpCEF-57" target="I21a7XMTvAU6tdeDpCEF-59">
          <mxGeometry relative="1" as="geometry">
            <Array as="points">
              <mxPoint x="1045" y="1187" />
            </Array>
          </mxGeometry>
        </mxCell>
        <mxCell id="I21a7XMTvAU6tdeDpCEF-61" value="10:Ajouter Service" style="text;html=1;align=center;verticalAlign=middle;resizable=0;points=[];autosize=1;strokeColor=none;fillColor=none;" vertex="1" parent="1">
          <mxGeometry x="1040" y="1180" width="120" height="30" as="geometry" />
        </mxCell>
        <mxCell id="I21a7XMTvAU6tdeDpCEF-62" value="11: message de confirmation" style="text;html=1;align=center;verticalAlign=middle;resizable=0;points=[];autosize=1;strokeColor=none;fillColor=none;" vertex="1" parent="1">
          <mxGeometry x="832" y="1266" width="180" height="30" as="geometry" />
        </mxCell>
        <mxCell id="I21a7XMTvAU6tdeDpCEF-63" value="" style="endArrow=classic;html=1;rounded=0;exitX=0;exitY=1;exitDx=0;exitDy=0;dashed=1;" edge="1" parent="1">
          <mxGeometry width="50" height="50" relative="1" as="geometry">
            <mxPoint x="1002" y="1272" as="sourcePoint" />
            <mxPoint x="845.590909090909" y="1272" as="targetPoint" />
          </mxGeometry>
        </mxCell>
      </root>
    </mxGraphModel>
  </diagram>
</mxfile>
